<mxfile host="app.diagrams.net" modified="2021-11-03T23:18:29.551Z" agent="5.0 (Macintosh; Intel Mac OS X 10_15_7) AppleWebKit/537.36 (KHTML, like Gecko) Chrome/95.0.4638.54 Safari/537.36" etag="USJiyyoZBR37YxN6FTxa" version="15.5.0" type="github">
  <diagram id="C5RBs43oDa-KdzZeNtuy" name="Page-1">
    <mxGraphModel dx="2037" dy="1134" grid="1" gridSize="10" guides="1" tooltips="1" connect="1" arrows="1" fold="1" page="1" pageScale="1" pageWidth="827" pageHeight="1169" math="0" shadow="1">
      <root>
        <mxCell id="WIyWlLk6GJQsqaUBKTNV-0" />
        <mxCell id="WIyWlLk6GJQsqaUBKTNV-1" parent="WIyWlLk6GJQsqaUBKTNV-0" />
        <mxCell id="0b9VVzX_pEQ83UHBqS1w-0" value="&amp;lt;&amp;lt; Instrument &amp;gt;&amp;gt;" style="rounded=0;whiteSpace=wrap;html=1;" vertex="1" parent="WIyWlLk6GJQsqaUBKTNV-1">
          <mxGeometry x="354" y="60" width="120" height="30" as="geometry" />
        </mxCell>
        <mxCell id="0b9VVzX_pEQ83UHBqS1w-1" value="" style="rounded=0;whiteSpace=wrap;html=1;" vertex="1" parent="WIyWlLk6GJQsqaUBKTNV-1">
          <mxGeometry x="354" y="90" width="120" height="30" as="geometry" />
        </mxCell>
        <mxCell id="0b9VVzX_pEQ83UHBqS1w-2" value="" style="rounded=0;whiteSpace=wrap;html=1;" vertex="1" parent="WIyWlLk6GJQsqaUBKTNV-1">
          <mxGeometry x="354" y="120" width="120" height="30" as="geometry" />
        </mxCell>
        <mxCell id="0b9VVzX_pEQ83UHBqS1w-3" value="Play" style="rounded=0;whiteSpace=wrap;html=1;" vertex="1" parent="WIyWlLk6GJQsqaUBKTNV-1">
          <mxGeometry x="630" y="50" width="120" height="30" as="geometry" />
        </mxCell>
        <mxCell id="0b9VVzX_pEQ83UHBqS1w-4" value="" style="rounded=0;whiteSpace=wrap;html=1;" vertex="1" parent="WIyWlLk6GJQsqaUBKTNV-1">
          <mxGeometry x="630" y="80" width="120" height="30" as="geometry" />
        </mxCell>
        <mxCell id="0b9VVzX_pEQ83UHBqS1w-5" value="" style="rounded=0;whiteSpace=wrap;html=1;" vertex="1" parent="WIyWlLk6GJQsqaUBKTNV-1">
          <mxGeometry x="630" y="110" width="120" height="30" as="geometry" />
        </mxCell>
        <mxCell id="0b9VVzX_pEQ83UHBqS1w-6" value="Type" style="rounded=0;whiteSpace=wrap;html=1;" vertex="1" parent="WIyWlLk6GJQsqaUBKTNV-1">
          <mxGeometry x="30" y="105" width="120" height="35" as="geometry" />
        </mxCell>
        <mxCell id="0b9VVzX_pEQ83UHBqS1w-7" value="" style="rounded=0;whiteSpace=wrap;html=1;" vertex="1" parent="WIyWlLk6GJQsqaUBKTNV-1">
          <mxGeometry x="30" y="140" width="120" height="30" as="geometry" />
        </mxCell>
        <mxCell id="0b9VVzX_pEQ83UHBqS1w-8" value="" style="rounded=0;whiteSpace=wrap;html=1;" vertex="1" parent="WIyWlLk6GJQsqaUBKTNV-1">
          <mxGeometry x="30" y="170" width="120" height="30" as="geometry" />
        </mxCell>
        <mxCell id="0b9VVzX_pEQ83UHBqS1w-9" value="String" style="rounded=0;whiteSpace=wrap;html=1;" vertex="1" parent="WIyWlLk6GJQsqaUBKTNV-1">
          <mxGeometry x="200" y="250" width="120" height="30" as="geometry" />
        </mxCell>
        <mxCell id="0b9VVzX_pEQ83UHBqS1w-10" value="+sizeInst: string" style="rounded=0;whiteSpace=wrap;html=1;align=left;" vertex="1" parent="WIyWlLk6GJQsqaUBKTNV-1">
          <mxGeometry x="200" y="280" width="120" height="30" as="geometry" />
        </mxCell>
        <mxCell id="0b9VVzX_pEQ83UHBqS1w-12" value="" style="endArrow=classic;html=1;rounded=0;edgeStyle=orthogonalEdgeStyle;exitX=0.5;exitY=0;exitDx=0;exitDy=0;entryX=0.5;entryY=1;entryDx=0;entryDy=0;" edge="1" parent="WIyWlLk6GJQsqaUBKTNV-1" source="0b9VVzX_pEQ83UHBqS1w-9">
          <mxGeometry width="50" height="50" relative="1" as="geometry">
            <mxPoint x="250" y="230" as="sourcePoint" />
            <mxPoint x="364" y="150" as="targetPoint" />
          </mxGeometry>
        </mxCell>
        <mxCell id="0b9VVzX_pEQ83UHBqS1w-13" value="Cello" style="rounded=0;whiteSpace=wrap;html=1;" vertex="1" parent="WIyWlLk6GJQsqaUBKTNV-1">
          <mxGeometry x="195" y="380" width="130" height="30" as="geometry" />
        </mxCell>
        <mxCell id="0b9VVzX_pEQ83UHBqS1w-14" value="Violin" style="rounded=0;whiteSpace=wrap;html=1;" vertex="1" parent="WIyWlLk6GJQsqaUBKTNV-1">
          <mxGeometry x="120" y="730" width="120" height="30" as="geometry" />
        </mxCell>
        <mxCell id="0b9VVzX_pEQ83UHBqS1w-15" value="Viola" style="rounded=0;whiteSpace=wrap;html=1;" vertex="1" parent="WIyWlLk6GJQsqaUBKTNV-1">
          <mxGeometry x="160" y="540" width="120" height="30" as="geometry" />
        </mxCell>
        <mxCell id="0b9VVzX_pEQ83UHBqS1w-16" value="" style="rounded=0;whiteSpace=wrap;html=1;" vertex="1" parent="WIyWlLk6GJQsqaUBKTNV-1">
          <mxGeometry x="195" y="410" width="130" height="40" as="geometry" />
        </mxCell>
        <mxCell id="0b9VVzX_pEQ83UHBqS1w-17" value="" style="rounded=0;whiteSpace=wrap;html=1;align=left;" vertex="1" parent="WIyWlLk6GJQsqaUBKTNV-1">
          <mxGeometry x="200" y="310" width="120" height="30" as="geometry" />
        </mxCell>
        <mxCell id="0b9VVzX_pEQ83UHBqS1w-18" value="" style="rounded=0;whiteSpace=wrap;html=1;align=left;" vertex="1" parent="WIyWlLk6GJQsqaUBKTNV-1">
          <mxGeometry x="195" y="450" width="130" height="40" as="geometry" />
        </mxCell>
        <mxCell id="0b9VVzX_pEQ83UHBqS1w-19" value="" style="rounded=0;whiteSpace=wrap;html=1;align=left;" vertex="1" parent="WIyWlLk6GJQsqaUBKTNV-1">
          <mxGeometry x="160" y="570" width="120" height="35" as="geometry" />
        </mxCell>
        <mxCell id="0b9VVzX_pEQ83UHBqS1w-20" value="" style="rounded=0;whiteSpace=wrap;html=1;align=left;" vertex="1" parent="WIyWlLk6GJQsqaUBKTNV-1">
          <mxGeometry x="160" y="605" width="120" height="40" as="geometry" />
        </mxCell>
        <mxCell id="0b9VVzX_pEQ83UHBqS1w-21" value="" style="rounded=0;whiteSpace=wrap;html=1;align=left;" vertex="1" parent="WIyWlLk6GJQsqaUBKTNV-1">
          <mxGeometry x="120" y="760" width="120" height="60" as="geometry" />
        </mxCell>
        <mxCell id="0b9VVzX_pEQ83UHBqS1w-22" value="" style="rounded=0;whiteSpace=wrap;html=1;align=left;" vertex="1" parent="WIyWlLk6GJQsqaUBKTNV-1">
          <mxGeometry x="120" y="820" width="120" height="60" as="geometry" />
        </mxCell>
        <mxCell id="0b9VVzX_pEQ83UHBqS1w-23" value="Woodwinds" style="rounded=0;whiteSpace=wrap;html=1;align=center;" vertex="1" parent="WIyWlLk6GJQsqaUBKTNV-1">
          <mxGeometry x="370" y="260" width="130" height="30" as="geometry" />
        </mxCell>
        <mxCell id="0b9VVzX_pEQ83UHBqS1w-24" value="" style="endArrow=classic;html=1;rounded=0;edgeStyle=orthogonalEdgeStyle;exitX=0.5;exitY=0;exitDx=0;exitDy=0;entryX=0.339;entryY=1.052;entryDx=0;entryDy=0;entryPerimeter=0;" edge="1" parent="WIyWlLk6GJQsqaUBKTNV-1" source="0b9VVzX_pEQ83UHBqS1w-23" target="0b9VVzX_pEQ83UHBqS1w-2">
          <mxGeometry width="50" height="50" relative="1" as="geometry">
            <mxPoint x="360" y="200" as="sourcePoint" />
            <mxPoint x="400" y="190" as="targetPoint" />
          </mxGeometry>
        </mxCell>
        <mxCell id="0b9VVzX_pEQ83UHBqS1w-25" value="" style="rounded=0;whiteSpace=wrap;html=1;align=center;" vertex="1" parent="WIyWlLk6GJQsqaUBKTNV-1">
          <mxGeometry x="370" y="290" width="130" height="40" as="geometry" />
        </mxCell>
        <mxCell id="0b9VVzX_pEQ83UHBqS1w-26" value="" style="rounded=0;whiteSpace=wrap;html=1;align=center;" vertex="1" parent="WIyWlLk6GJQsqaUBKTNV-1">
          <mxGeometry x="370" y="330" width="130" height="30" as="geometry" />
        </mxCell>
        <mxCell id="0b9VVzX_pEQ83UHBqS1w-28" value="Flute" style="rounded=0;whiteSpace=wrap;html=1;align=center;" vertex="1" parent="WIyWlLk6GJQsqaUBKTNV-1">
          <mxGeometry x="370" y="490" width="130" height="40" as="geometry" />
        </mxCell>
        <mxCell id="0b9VVzX_pEQ83UHBqS1w-29" value="Oboe" style="rounded=0;whiteSpace=wrap;html=1;align=center;" vertex="1" parent="WIyWlLk6GJQsqaUBKTNV-1">
          <mxGeometry x="370" y="730" width="140" height="40" as="geometry" />
        </mxCell>
        <mxCell id="0b9VVzX_pEQ83UHBqS1w-30" value="Brass" style="rounded=0;whiteSpace=wrap;html=1;align=center;" vertex="1" parent="WIyWlLk6GJQsqaUBKTNV-1">
          <mxGeometry x="590" y="280" width="130" height="40" as="geometry" />
        </mxCell>
        <mxCell id="0b9VVzX_pEQ83UHBqS1w-31" value="" style="endArrow=classic;html=1;rounded=0;edgeStyle=orthogonalEdgeStyle;exitX=0.5;exitY=0;exitDx=0;exitDy=0;" edge="1" parent="WIyWlLk6GJQsqaUBKTNV-1" source="0b9VVzX_pEQ83UHBqS1w-30">
          <mxGeometry width="50" height="50" relative="1" as="geometry">
            <mxPoint x="414" y="200" as="sourcePoint" />
            <mxPoint x="464" y="150" as="targetPoint" />
          </mxGeometry>
        </mxCell>
        <mxCell id="0b9VVzX_pEQ83UHBqS1w-32" value="Trumpet" style="rounded=0;whiteSpace=wrap;html=1;align=center;" vertex="1" parent="WIyWlLk6GJQsqaUBKTNV-1">
          <mxGeometry x="640" y="440" width="130" height="40" as="geometry" />
        </mxCell>
        <mxCell id="0b9VVzX_pEQ83UHBqS1w-33" value="Trombone" style="rounded=0;whiteSpace=wrap;html=1;align=center;" vertex="1" parent="WIyWlLk6GJQsqaUBKTNV-1">
          <mxGeometry x="640" y="610" width="130" height="40" as="geometry" />
        </mxCell>
        <mxCell id="0b9VVzX_pEQ83UHBqS1w-34" value="" style="rounded=0;whiteSpace=wrap;html=1;align=center;" vertex="1" parent="WIyWlLk6GJQsqaUBKTNV-1">
          <mxGeometry x="370" y="530" width="130" height="40" as="geometry" />
        </mxCell>
        <mxCell id="0b9VVzX_pEQ83UHBqS1w-35" value="" style="rounded=0;whiteSpace=wrap;html=1;align=center;" vertex="1" parent="WIyWlLk6GJQsqaUBKTNV-1">
          <mxGeometry x="370" y="570" width="130" height="40" as="geometry" />
        </mxCell>
        <mxCell id="0b9VVzX_pEQ83UHBqS1w-36" value="" style="rounded=0;whiteSpace=wrap;html=1;align=center;" vertex="1" parent="WIyWlLk6GJQsqaUBKTNV-1">
          <mxGeometry x="370" y="770" width="140" height="60" as="geometry" />
        </mxCell>
        <mxCell id="0b9VVzX_pEQ83UHBqS1w-37" value="" style="rounded=0;whiteSpace=wrap;html=1;align=center;" vertex="1" parent="WIyWlLk6GJQsqaUBKTNV-1">
          <mxGeometry x="370" y="830" width="140" height="50" as="geometry" />
        </mxCell>
        <mxCell id="0b9VVzX_pEQ83UHBqS1w-38" value="" style="rounded=0;whiteSpace=wrap;html=1;align=center;" vertex="1" parent="WIyWlLk6GJQsqaUBKTNV-1">
          <mxGeometry x="590" y="320" width="130" height="30" as="geometry" />
        </mxCell>
        <mxCell id="0b9VVzX_pEQ83UHBqS1w-39" value="" style="rounded=0;whiteSpace=wrap;html=1;align=center;" vertex="1" parent="WIyWlLk6GJQsqaUBKTNV-1">
          <mxGeometry x="590" y="350" width="130" height="40" as="geometry" />
        </mxCell>
        <mxCell id="0b9VVzX_pEQ83UHBqS1w-40" value="" style="rounded=0;whiteSpace=wrap;html=1;align=center;" vertex="1" parent="WIyWlLk6GJQsqaUBKTNV-1">
          <mxGeometry x="640" y="650" width="130" height="40" as="geometry" />
        </mxCell>
        <mxCell id="0b9VVzX_pEQ83UHBqS1w-41" value="" style="rounded=0;whiteSpace=wrap;html=1;align=center;" vertex="1" parent="WIyWlLk6GJQsqaUBKTNV-1">
          <mxGeometry x="640" y="680" width="130" height="50" as="geometry" />
        </mxCell>
        <mxCell id="0b9VVzX_pEQ83UHBqS1w-42" value="" style="rounded=0;whiteSpace=wrap;html=1;align=center;" vertex="1" parent="WIyWlLk6GJQsqaUBKTNV-1">
          <mxGeometry x="640" y="480" width="130" height="40" as="geometry" />
        </mxCell>
        <mxCell id="0b9VVzX_pEQ83UHBqS1w-43" value="" style="rounded=0;whiteSpace=wrap;html=1;align=center;" vertex="1" parent="WIyWlLk6GJQsqaUBKTNV-1">
          <mxGeometry x="640" y="520" width="130" height="40" as="geometry" />
        </mxCell>
      </root>
    </mxGraphModel>
  </diagram>
</mxfile>
